<svg width="24" height="24" viewBox="0 0 24 24" fill="none" xmlns="http://www.w3.org/2000/svg">
<path d="M12 0C18.6274 0 24 5.37258 24 12C24 18.6274 18.6274 24 12 24C5.37258 24 0 18.6274 0 12C0 5.37258 5.37258 0 12 0ZM12 2C6.47715 2 2 6.47715 2 12C2 17.5228 6.47715 22 12 22C17.5228 22 22 17.5228 22 12C22 6.47715 17.5228 2 12 2ZM12.001 15.8643C12.3172 15.8643 12.6221 15.9859 12.8477 16.2041C13.0734 16.4225 13.2012 16.7204 13.2012 17.0322C13.2012 17.3441 13.0735 17.6419 12.8477 17.8604C12.6221 18.0786 12.3172 18.2002 12.001 18.2002C11.6849 18.2001 11.3808 18.0784 11.1553 17.8604C10.9295 17.6419 10.8008 17.3441 10.8008 17.0322C10.8008 16.7204 10.9295 16.4225 11.1553 16.2041C11.3808 15.9861 11.685 15.8643 12.001 15.8643ZM12.001 5.7998C13.095 5.7998 14.1328 6.16279 14.9219 6.83203H14.9209C15.7419 7.527 16.2026 8.4689 16.2002 9.4834L16.1885 9.76172C16.079 11.0493 15.2135 12.1787 13.9238 12.7607L13.6416 12.877C13.4518 12.9479 13.29 13.0722 13.1758 13.2324C13.0616 13.3926 13.0001 13.5813 12.999 13.7744V14.3223C12.999 14.5454 12.8128 14.7158 12.5986 14.7158H11.3984C11.1843 14.7158 10.998 14.5453 10.998 14.3223V13.8027C10.998 13.2036 11.1807 12.6108 11.5332 12.1162L11.6699 11.9404C12.0019 11.5437 12.4333 11.2382 12.9297 11.0547C13.7248 10.759 14.2021 10.1317 14.2021 9.4834C14.2018 8.56522 13.2556 7.74805 12.001 7.74805C10.7465 7.74816 9.80111 8.56528 9.80078 9.4834V9.66797C9.80066 9.89095 9.61452 10.0615 9.40039 10.0615H8.2002C7.98607 10.0615 7.79993 9.89095 7.7998 9.66797V9.4834C7.79995 8.46911 8.25994 7.52714 9.08105 6.83203C9.86972 6.16569 10.9067 5.79986 12.001 5.7998ZM14.3604 9.8291C14.3654 9.80686 14.3729 9.78514 14.377 9.7627L14.3779 9.75391C14.3734 9.77927 14.3661 9.80399 14.3604 9.8291ZM14.9346 7.11035C15.0266 7.19642 15.1126 7.28638 15.1934 7.37891C15.1531 7.33257 15.1116 7.28685 15.0684 7.24219C15.0251 7.19752 14.9807 7.15335 14.9346 7.11035Z" fill="#101010"/>
</svg>
