<svg width="24" height="24" viewBox="0 0 24 24" fill="none" xmlns="http://www.w3.org/2000/svg">
<path d="M12 0C18.6274 0 24 5.37258 24 12C24 18.6274 18.6274 24 12 24C5.37258 24 0 18.6274 0 12C0 5.37258 5.37258 0 12 0ZM12 15.5469C10.5608 15.5469 9.20968 16.1129 8.19141 17.1436C7.30514 18.0407 6.7673 19.196 6.64258 20.4424C8.1915 21.4274 10.0285 22 12 22C13.9714 22 15.8076 21.4263 17.3564 20.4414C17.2315 19.1954 16.6947 18.0405 15.8086 17.1436C14.7903 16.1128 13.4392 15.5469 12 15.5469ZM12 2C6.47715 2 2 6.47715 2 12C2 14.8109 3.16126 17.3493 5.02832 19.166C5.11588 18.8256 5.22784 18.4912 5.36426 18.166L5.50781 17.8457C5.85939 17.1064 6.33213 16.4315 6.90723 15.8506L7.16016 15.6064C7.68579 15.1217 8.27399 14.7229 8.91504 14.416C7.85645 13.5213 7.18275 12.1765 7.18262 10.6738C7.18262 7.98401 9.33675 5.79981 12 5.7998C14.6633 5.7998 16.8174 7.98401 16.8174 10.6738C16.8172 12.1769 16.1422 13.5208 15.083 14.4141C15.8286 14.772 16.509 15.2565 17.0928 15.8486H17.0918C17.7498 16.5121 18.2747 17.2983 18.6357 18.1641H18.6348C18.7716 18.491 18.8831 18.8256 18.9707 19.166C20.8381 17.3492 22 14.8111 22 12C22 6.47715 17.5228 2 12 2ZM16.7734 18.0605C16.8193 18.1365 16.8641 18.2131 16.9062 18.291C16.822 18.1353 16.7299 17.9837 16.6309 17.8359L16.7734 18.0605ZM16.1367 17.2002C16.2572 17.3343 16.3703 17.4737 16.4766 17.6172L16.3125 17.4053C16.2557 17.3357 16.1971 17.2673 16.1367 17.2002ZM12 7.63184C11.1995 7.63184 10.4467 7.9479 9.87891 8.52246C9.31105 9.09725 8.99805 9.8612 8.99805 10.6738C8.99817 11.4863 9.31116 12.2495 9.87891 12.8242C10.4467 13.3988 11.1995 13.7148 12 13.7148C12.8005 13.7148 13.5533 13.3988 14.1211 12.8242C14.6888 12.2495 15.0018 11.4863 15.002 10.6738C15.002 9.8612 14.6889 9.09725 14.1211 8.52246C13.5533 7.9479 12.8005 7.63184 12 7.63184ZM14.2637 12.9648L14.374 12.8477C14.402 12.8164 14.4284 12.7841 14.4551 12.752C14.3944 12.8251 14.3311 12.8965 14.2637 12.9648ZM8.81348 10.9951C8.81738 11.0354 8.82277 11.0753 8.82812 11.1152C8.8157 11.0226 8.80631 10.9292 8.80176 10.835L8.81348 10.9951ZM7.40625 10.1963C7.39874 10.2713 7.3936 10.3469 7.38965 10.4229C7.39519 10.3167 7.40454 10.2116 7.41699 10.1074C7.41348 10.137 7.40923 10.1665 7.40625 10.1963ZM16.5635 9.96191H16.5645H16.5635ZM7.43555 9.96191C7.43119 9.99077 7.42764 10.0198 7.42383 10.0488C7.43797 9.94185 7.45544 9.836 7.47656 9.73145L7.43555 9.96191ZM9.52246 8.62109C9.50051 8.64814 9.47902 8.67547 9.45801 8.70312C9.51112 8.63323 9.56689 8.56496 9.62598 8.49902L9.52246 8.62109Z" fill="#101010"/>
</svg>
