<svg width="20" height="20" viewBox="0 0 20 20" fill="none" xmlns="http://www.w3.org/2000/svg">
<path d="M10 18.5C5.31366 18.5 1.5 14.6863 1.5 10C1.5 5.31367 5.31366 1.5 10 1.5C14.6863 1.5 18.5 5.31367 18.5 10C18.5 14.6863 14.6863 18.5 10 18.5Z" stroke="#7B7B7B" stroke-width="1.8" stroke-linecap="round" stroke-linejoin="round"/>
<path d="M10 18.5C5.31366 18.5 1.5 14.6863 1.5 10C1.5 5.31367 5.31366 1.5 10 1.5C14.6863 1.5 18.5 5.31367 18.5 10C18.5 14.6863 14.6863 18.5 10 18.5Z" stroke="#7B7B7B" stroke-width="1.8" stroke-linecap="round" stroke-linejoin="round"/>
<path d="M10.0016 13.4016C8.12589 13.4016 6.60156 11.8772 6.60156 10.0016C6.60156 8.1259 8.12589 6.60156 10.0016 6.60156C11.8772 6.60156 13.4016 8.1259 13.4016 10.0016C13.4016 11.8772 11.8772 13.4016 10.0016 13.4016Z" stroke="#7B7B7B" stroke-width="1.8" stroke-linecap="round" stroke-linejoin="round"/>
<path d="M10.0016 13.4016C8.12589 13.4016 6.60156 11.8772 6.60156 10.0016C6.60156 8.1259 8.12589 6.60156 10.0016 6.60156C11.8772 6.60156 13.4016 8.1259 13.4016 10.0016C13.4016 11.8772 11.8772 13.4016 10.0016 13.4016Z" stroke="#7B7B7B" stroke-width="1.8" stroke-linecap="round" stroke-linejoin="round"/>
<path d="M10 1.5V6.6" stroke="#7B7B7B" stroke-width="1.8" stroke-linecap="round" stroke-linejoin="round"/>
<path d="M10 1.5V6.6" stroke="#7B7B7B" stroke-width="1.8" stroke-linecap="round" stroke-linejoin="round"/>
<path d="M12.2109 12.6914L15.5316 16.4824" stroke="#7B7B7B" stroke-width="1.8" stroke-linecap="round" stroke-linejoin="round"/>
<path d="M12.2109 12.6914L15.5316 16.4824" stroke="#7B7B7B" stroke-width="1.8" stroke-linecap="round" stroke-linejoin="round"/>
<path d="M13.3984 10H18.4984" stroke="#7B7B7B" stroke-width="1.8" stroke-linecap="round" stroke-linejoin="round"/>
<path d="M13.3984 10H18.4984" stroke="#7B7B7B" stroke-width="1.8" stroke-linecap="round" stroke-linejoin="round"/>
</svg>
