<svg width="20" height="20" viewBox="0 0 20 20" fill="none" xmlns="http://www.w3.org/2000/svg">
<path d="M4.85768 3.00391H3.64809C3.09828 3.00391 2.64844 3.45377 2.64844 4.00361V16.9998C2.64844 17.5496 3.09828 17.9995 3.64809 17.9995H14.6443C15.1941 17.9995 15.6439 17.5496 15.6439 16.9998V15.0004" stroke="#7B7B7B" stroke-width="1.8" stroke-linecap="round" stroke-linejoin="round"/>
<path d="M13.4453 3.00391H14.6399C15.1897 3.00391 15.6396 3.45377 15.6396 4.00361V8.79719" stroke="#7B7B7B" stroke-width="1.8" stroke-linecap="round" stroke-linejoin="round"/>
<path d="M11.9212 5.00411H6.36313C5.93328 5.00411 5.5484 4.72919 5.41345 4.31931L4.85864 2.65981C4.74868 2.3349 4.9936 2 5.33349 2H12.9458C13.2857 2 13.5256 2.3349 13.4207 2.65981L12.8659 4.31931C12.7309 4.72919 12.3461 5.00411 11.9162 5.00411H11.9212Z" stroke="#7B7B7B" stroke-width="1.8" stroke-linecap="round" stroke-linejoin="round"/>
<path d="M5.65234 12.0678H8.11649L9.38605 14.5021L11.8352 8.84375L14.1744 11.9228H17.3533" stroke="#7B7B7B" stroke-width="1.8" stroke-linecap="round" stroke-linejoin="round"/>
</svg>
