<svg width="131" height="24" viewBox="0 0 131 24" fill="none" xmlns="http://www.w3.org/2000/svg">
<path d="M97.3701 0.332031H91.9297V23.6745H107.262V19.2361H97.3701V0.332031Z" fill="#101010"/>
<path d="M79.2333 0.332031H73.793V23.6745H89.1249V19.2361H79.2333V0.332031Z" fill="#101010"/>
<path d="M119.956 0C113.691 0 108.91 4.27397 108.91 12C108.91 19.5616 113.691 24 119.956 24C126.22 24 131.001 19.726 131.001 12C131.001 4.27397 126.22 0 119.956 0ZM119.956 19.0685C116.494 19.0685 114.515 16.6027 114.515 12C114.515 7.39726 116.659 4.93151 119.956 4.93151C123.418 4.93151 125.396 7.39726 125.396 12C125.396 16.6027 123.253 19.0685 119.956 19.0685Z" fill="#101010"/>
<path d="M59.4518 0C53.1872 0 48.4062 4.27397 48.4062 12C48.4062 19.5616 53.1872 24 59.4518 24C65.7165 24 70.4974 19.726 70.4974 12C70.4974 4.27397 65.7165 0 59.4518 0ZM59.4518 19.0685C55.9898 19.0685 54.0115 16.6027 54.0115 12C54.0115 7.39726 56.1547 4.93151 59.4518 4.93151C62.9139 4.93151 64.8922 7.39726 64.8922 12C64.8922 16.6027 62.9139 19.0685 59.4518 19.0685Z" fill="#101010"/>
<path d="M37.5238 0.164062H34.2266V4.60242H36.3697C39.0075 4.60242 40.3264 5.91749 40.3264 8.21886C40.3264 10.3558 39.0075 11.8353 36.3697 11.8353H34.2266V16.1093H37.3589C42.6344 16.1093 45.9316 12.986 45.9316 8.21886C46.0965 3.45173 42.7993 0.164062 37.5238 0.164062Z" fill="#101010"/>
<rect x="26.1484" width="5.44736" height="24" fill="#274FC7"/>
<rect x="18.5195" width="5.44736" height="24" fill="url(#paint0_linear_337_1523)"/>
<path d="M16.3421 0H23.9684L7.6263 24H0L16.3421 0Z" fill="url(#paint1_linear_337_1523)"/>
<defs>
<linearGradient id="paint0_linear_337_1523" x1="21.2432" y1="0" x2="21.2432" y2="24" gradientUnits="userSpaceOnUse">
<stop stop-color="#001247"/>
<stop offset="1" stop-color="#274FC7"/>
</linearGradient>
<linearGradient id="paint1_linear_337_1523" x1="11.9842" y1="0" x2="11.9842" y2="24" gradientUnits="userSpaceOnUse">
<stop stop-color="#3F6AEB"/>
<stop offset="1" stop-color="#274FC7"/>
</linearGradient>
</defs>
</svg>
